<?xml version="1.0" encoding="UTF-8"?>
<svg width="16px" height="16px" viewBox="0 0 16 16" version="1.1" xmlns="http://www.w3.org/2000/svg" xmlns:xlink="http://www.w3.org/1999/xlink">
    <!-- Generator: sketchtool 54.1 (76490) - https://sketchapp.com -->
    <title>19BDBD0B-7114-4737-A305-6D260D952381@1.00x</title>
    <desc>Created with sketchtool.</desc>
    <g id="User-Profile" stroke="none" stroke-width="1" fill="none" fill-rule="evenodd" stroke-linecap="round" stroke-linejoin="round">
        <g id="Profile-Linkedin-On" transform="translate(-217.000000, -1256.000000)" stroke="#05D3D8" stroke-width="1.5">
            <g id="Group-14" transform="translate(55.000000, 1212.000000)">
                <g id="Group-4" transform="translate(163.000000, 45.000000)">
                    <g id="Group-2" transform="translate(-0.000000, 0.000000)">
                        <path d="M-2.30926389e-13,1.86666667 C2.24487096e-13,1.61 0.21,1.4 0.466666667,1.4 L13.5333333,1.4 C13.79,1.4 14,1.61 14,1.86666667 L14,13.5333333 C14,13.79 13.79,14 13.5333333,14 L0.466666667,14 C0.21,14 2.24487096e-13,13.79 2.24487096e-13,13.5333333 L-2.30926389e-13,1.86666667 Z" id="Path"></path>
                        <path d="M4.66666667,7.59392549e-14 L4.66666667,2.33333333" id="Stroke-5"></path>
                        <path d="M9.66666667,-1.51434421e-13 L9.66666667,2.33333333" id="Stroke-5"></path>
                        <g id="Group-Copy" transform="translate(7.228427, 7.828427) rotate(-315.000000) translate(-7.228427, -7.828427) translate(5.228427, 5.828427)">
                            <path d="M3.99973333,0 L6.00408612e-13,4" id="Stroke-1"></path>
                            <path d="M4,4 L0,0" id="Stroke-3"></path>
                        </g>
                    </g>
                </g>
            </g>
        </g>
    </g>
</svg>