<svg xmlns="http://www.w3.org/2000/svg" viewBox="0 0 170.11 166.43"><defs><style>.a{fill:#4d4d4d;}.b{fill:#4fe4e7;}.c{fill:#91ecef;}.d{fill:#c2f4f4;}.e{fill:#aff2f3;}.f{fill:#90ecef;}</style></defs><title>2016_logo_sm</title><path class="a" d="M48.26,113.72c0,13.54-10.14,24.3-24.16,24.3H9.66V89.42H24.1C38.12,89.42,48.26,100.18,48.26,113.72Zm-5.83,0c0-10.9-6.87-19.23-18.33-19.23H15.56V133H24.1C35.55,133,42.43,124.55,42.43,113.72Z"/><path class="a" d="M100.19,132.81V138H69.09V89.42H99.35v5.21H75.13V111H92.55v5.21H75.13v16.59h25.06Z"/><path class="a" d="M160.45,138.44h-0.21l-32.63-36V138h-5.9V89h0.21l32.63,36.1V89.42h5.9v49Z"/><path class="a" d="M18.21,156l-1,.37a3.48,3.48,0,0,0-3.27-2c-1.74,0-2.9.94-2.9,2.2s0.88,1.8,2.2,2.26l1.54,0.53c2,0.7,3.58,1.63,3.58,3.67s-2.18,3.43-4.42,3.43a4.78,4.78,0,0,1-4.59-3l1-.42a3.76,3.76,0,0,0,3.6,2.42c1.71,0,3.27-.88,3.27-2.42s-1.25-2.13-2.64-2.61l-1.6-.55c-1.78-.62-3.08-1.47-3.08-3.3s1.74-3.21,4.06-3.21A4.57,4.57,0,0,1,18.21,156Z"/><path class="a" d="M30.54,154.48H26.7V166.3H25.53V154.48H21.67v-1h8.87v1Z"/><path class="a" d="M41,162.54H34.92l-1.65,3.76H32l5.91-13H38l5.91,13H42.69Zm-0.42-1-2.64-6-2.63,6h5.27Z"/><path class="a" d="M55.7,166.3l-3.51-4.85H48.85v4.85H47.69V153.45h4.19c2.74,0,4.41,1.74,4.41,4a3.81,3.81,0,0,1-3,3.82l3.67,5H55.7Zm-6.85-5.84h3c2.07,0,3.25-1.12,3.25-3s-1.17-3-3.25-3h-3v6Z"/><path class="a" d="M68.8,154.48H65V166.3H63.79V154.48H59.94v-1H68.8v1Z"/><path class="a" d="M82.73,161.46a4.86,4.86,0,1,1-9.71,0v-8h1.14v8c0,2.57,1.47,4,3.71,4s3.73-1.4,3.73-4v-8h1.14v8Z"/><path class="a" d="M95.63,157.45c0,2.28-1.67,4-4.41,4h-3v4.85H87V153.45h4.19C94,153.45,95.63,155.2,95.63,157.45Zm-1.16,0c0-1.89-1.17-3-3.25-3h-3v6h3C93.3,160.47,94.48,159.35,94.48,157.45Z"/><path class="a" d="M116.9,166.3h-0.26l-4.09-10.45-4.13,10.45h-0.26l-4.37-12.85H105l3.38,10.13,4-10.13h0.28l4,10.13,3.38-10.13h1.21Z"/><path class="a" d="M133.24,165.26v1h-8V153.45H133v1h-6.61v4.83h4.81v1h-4.81v4.9h6.83Z"/><path class="a" d="M145.57,165.26v1h-8V153.45h7.8v1h-6.61v4.83h4.81v1h-4.81v4.9h6.83Z"/><path class="a" d="M154.5,159.68l6.24,6.63h-1.47l-5.49-5.86L151.33,163v3.3h-1.17V153.45h1.17v8l7.56-8h1.47Z"/><polygon class="b" points="0 69.63 47.33 33.07 52.97 0 0 69.63"/><polygon class="b" points="103.99 10.5 143.37 69.63 154.66 69.63 170.11 69.63 103.99 10.5"/><path class="c" d="M69.78,50.06V46.38a10.37,10.37,0,0,1,2.39-6.95L61.74,36.76l0.46,7.4h3.85V52Z"/><polygon class="c" points="37.36 61.99 37.36 52.88 50.1 52.88 50.1 60.38 55.16 57.73 55.16 44.15 60.04 44.15 60.52 36.45 47.33 33.07 0 69.63 32.48 69.63 37.36 67.07 37.36 61.99"/><path class="d" d="M60.66,34.23h0.93l0.16,2.52,10.43,2.67c1.51-1.75,4-3.15,8-3.15v3.79a10.3,10.3,0,0,1,4.72,2.48L123,45.05,53,0,47.33,33.07l13.19,3.38Z"/><polygon class="e" points="55.16 50.89 50.1 55.07 50.1 61.99 55.16 61.99 55.16 50.89"/><path class="e" d="M66.06,44.15V69.63h3.72V46.38s-0.4-10.1,10.35-10.1v3.79s3.6,0.72,5.36,3.24a5.25,5.25,0,0,1,1,3.07V57.85l3.78-10.19V46.71h0.35L104,10.57,63.32,44.15h2.74Z"/><polygon class="e" points="37.36 65.61 32.48 69.63 37.36 69.63 37.36 65.61"/><polygon class="f" points="103.9 46.71 103.9 59.72 103.9 61.99 128.52 59.35 122.55 69.63 143.37 69.63 103.99 10.5 90.37 46.71 103.9 46.71"/><polygon class="f" points="90.22 64.52 90.22 47.13 86.44 57.17 86.44 64.52 90.22 64.52"/></svg>