<?xml version="1.0" encoding="UTF-8"?>
<svg width="16px" height="16px" viewBox="0 0 16 16" version="1.1" xmlns="http://www.w3.org/2000/svg" xmlns:xlink="http://www.w3.org/1999/xlink">
    <!-- Generator: sketchtool 54.1 (76490) - https://sketchapp.com -->
    <title>3533E46F-1FF8-447F-8DF2-EEA923FFE38D@1.00x</title>
    <desc>Created with sketchtool.</desc>
    <g id="User-Profile" stroke="none" stroke-width="1" fill="none" fill-rule="evenodd">
        <g id="Profile-Linkedin-Off" transform="translate(-56.000000, -211.000000)" stroke="#05D3D8" stroke-width="1.5">
            <g id="Group" transform="translate(57.000000, 212.000000)">
                <path d="M14,7 C14,3.13366667 10.8658667,0 7,0 C3.13413333,0 0,3.13366667 0,7 C0,10.8663333 3.13413333,14 7,14 C10.8658667,14 14,10.8663333 14,7 Z" id="Stroke-1" stroke-linecap="round" stroke-linejoin="round"></path>
                <path d="M9.8,5.72394667 C9.8,7.27001333 8.54606667,8.52394667 7,8.52394667 C5.45393333,8.52394667 4.2,7.27001333 4.2,5.72394667 C4.2,4.17788 5.45393333,2.92394667 7,2.92394667 C8.54606667,2.92394667 9.8,4.17788 9.8,5.72394667 Z" id="Stroke-3"></path>
                <path d="M2.81092,12.6082133 C2.96538667,10.6603467 4.76952,8.99061333 7.00018667,8.99061333 C9.23085333,8.99061333 11.0349867,10.6608133 11.1894533,12.6091467" id="Stroke-5" stroke-linecap="round" stroke-linejoin="round"></path>
            </g>
        </g>
    </g>
</svg>