<?xml version="1.0" encoding="UTF-8"?>
<svg width="59px" height="59px" viewBox="0 0 59 59" version="1.1" xmlns="http://www.w3.org/2000/svg" xmlns:xlink="http://www.w3.org/1999/xlink">
    <!-- Generator: sketchtool 54.1 (76490) - https://sketchapp.com -->
    <title>2942E7F7-42AB-42F0-AABA-8CC58837E27D@1.00x</title>
    <desc>Created with sketchtool.</desc>
    <g id="Symbols" stroke="none" stroke-width="1" fill="none" fill-rule="evenodd">
        <g id="Footer" transform="translate(-961.000000, -316.000000)">
            <g id="Guiceworks" transform="translate(961.000000, 316.000000)">
                <g id="G_T-02-02" opacity="0.7" fill="#0B0B09">
                    <path d="M54.9310345,13.6213173 C52.5422589,9.71845428 49.2836557,6.41857596 45.4285961,4 L35.5393735,14.062245 C35.5553256,14.0681078 35.5709499,14.074745 35.586902,14.0807184 L22.3793103,27.4524656 L31.8096364,37 L44.9967962,23.6489386 C44.9994185,23.6562394 45.0023686,23.6634297 45.0049908,23.6707305 L54.9310345,13.6213173" id="Fill-1"></path>
                    <path d="M45.480658,27.905136 C45.5324196,28.4298007 45.5589611,28.9617341 45.5589611,29.4999449 C45.5589611,38.3691353 38.3690637,45.5590462 29.5,45.5590462 C20.6308262,45.5590462 13.4410389,38.3691353 13.4410389,29.4999449 C13.4410389,20.6308647 20.6308262,13.4409538 29.5,13.4409538 L29.5,0 C13.2076715,0 0,13.207586 0,29.4999449 C0,45.792414 13.2076715,59 29.5,59 C45.7924387,59 59,45.792414 59,29.4999449 C59,25.0737748 58.0243501,20.8759065 56.2774534,17.1084306 L45.480658,27.905136" id="Fill-2"></path>
                </g>
                <path d="M55.8419253,53 C57.4041992,53 58.676,54.2718008 58.676,55.8340747 C58.676,57.4041992 57.4041992,58.676 55.8419253,58.676 C54.2718008,58.676 53,57.4041992 53,55.8340747 C53,54.2718008 54.2718008,53 55.8419253,53 Z M55.8419253,57.9380415 C56.9802656,57.9380415 57.8987884,56.9959668 57.8987884,55.8340747 C57.8987884,54.6721826 56.9802656,53.7301079 55.8419253,53.7301079 C54.7035851,53.7301079 53.7772116,54.6721826 53.7772116,55.8340747 C53.7772116,56.9959668 54.7035851,57.9380415 55.8419253,57.9380415 Z M57.2157842,56.2658589 C57.0509212,56.8939087 56.5170788,57.3492448 55.8419253,57.3492448 C55.01761,57.3492448 54.3895602,56.6740913 54.3895602,55.8340747 C54.3895602,55.0019087 55.01761,54.3267552 55.8419253,54.3267552 C56.5327801,54.3267552 57.0587718,54.7742407 57.2236349,55.4101411 L56.4228714,55.4101411 C56.3129627,55.1903237 56.1166971,55.0490124 55.8419253,55.0490124 C55.4650954,55.0490124 55.1589212,55.4022905 55.1589212,55.8340747 C55.1589212,56.2658589 55.4650954,56.6191369 55.8419253,56.6191369 C56.1088465,56.6191369 56.305112,56.4778257 56.4150207,56.2658589 L57.2157842,56.2658589 Z" id="©" fill="#5F5F5F" fill-rule="nonzero"></path>
            </g>
        </g>
    </g>
</svg>