<svg xmlns="http://www.w3.org/2000/svg" viewBox="0 0 96.2 93.63"><defs><style>.a{isolation:isolate;}.b{fill:#c2c2c2;}.c{fill:#a5a5a5;}.d{fill:#dbdbdb;}.e{fill:#c1c1c1;}.f{fill:#d2d2d2;}.g{fill:#05d3d8;mix-blend-mode:overlay;}.h{fill:#4d4d4d;}</style></defs><title>DSW-logo</title><g class="a"><polyline class="b" points="19.38 34.42 45.45 21.01 26.9 16.12 2.99 34.42"/><polygon class="c" points="2.99 34.42 26.86 16.34 29.71 0 2.99 34.42"/><polygon class="d" points="29.71 0 26.86 16.34 45.45 21.01 65.02 22.27 29.71 0"/><polygon class="e" points="55.44 5.19 75.3 34.42 44.22 34.42 55.44 5.19"/><polygon class="f" points="55.6 5.08 44.38 34.42 19.7 34.42 55.6 5.08"/><polygon class="c" points="88.78 34.42 88.78 34.42 80.99 34.42 55.44 5.19 88.78 34.42"/><polygon class="c" points="80.99 34.42 75.3 34.42 55.44 5.19 80.99 34.42"/><polygon class="g" points="55.53 5.27 55.6 5.08 55.45 5.2 55.44 5.19 55.42 5.22 47.83 11.43 29.71 0 2.99 34.42 19.38 34.42 20.25 33.97 19.7 34.42 44.22 34.42 44.38 34.42 75.3 34.42 80.99 34.42 88.78 34.42 55.53 5.27"/><path class="h" d="M17.11,49.29a12.94,12.94,0,0,1,4.83,4.9,14.36,14.36,0,0,1,0,13.72,12.93,12.93,0,0,1-4.83,4.9,13.45,13.45,0,0,1-6.92,1.8H2.13V47.49h8.06A13.45,13.45,0,0,1,17.11,49.29ZM15.62,70.37a9.42,9.42,0,0,0,3.57-3.86,11.9,11.9,0,0,0,1.24-5.46,12,12,0,0,0-1.24-5.5,9.34,9.34,0,0,0-3.55-3.84,10.31,10.31,0,0,0-5.45-1.4H5.43V71.79h4.77A10.22,10.22,0,0,0,15.62,70.37Z"/><path class="h" d="M52.67,71.71v2.91H35.31V47.49h16.9v2.91H38.68v9.15h9.73v2.91H38.68v9.26h14Z"/><path class="h" d="M86.32,74.85H86.2L68,54.77V74.62H64.69V47.25h0.12L83,67.41V47.49h3.29V74.85Z"/><path class="h" d="M5.4,85.05a2.29,2.29,0,0,1,.84,1l-0.7.26A1.51,1.51,0,0,0,5,85.62,1.67,1.67,0,0,0,4,85.37a1.53,1.53,0,0,0-1,.28,0.86,0.86,0,0,0-.37.71A0.82,0.82,0,0,0,3,87a2.56,2.56,0,0,0,.81.42l0.66,0.23a3.89,3.89,0,0,1,1.43.79,1.58,1.58,0,0,1,.49,1.2,1.51,1.51,0,0,1-.33,1,2.12,2.12,0,0,1-.87.64A3,3,0,0,1,4,91.48,2.64,2.64,0,0,1,2.52,91a2.23,2.23,0,0,1-.91-1.13l0.68-.3a1.76,1.76,0,0,0,.66.83A1.82,1.82,0,0,0,4,90.77a1.91,1.91,0,0,0,1.08-.3,1,1,0,0,0,.13-1.59,3.29,3.29,0,0,0-1-.49l-0.68-.24a3.33,3.33,0,0,1-1.24-.69,1.56,1.56,0,0,1-.15-2A1.87,1.87,0,0,1,3,84.88,2.64,2.64,0,0,1,4,84.66,2.37,2.37,0,0,1,5.4,85.05Z"/><path class="h" d="M13.24,85.44H11.32v6H10.48v-6H8.55V84.73h4.69v0.72Z"/><path class="h" d="M19.17,89.7H16.11l-0.75,1.71H14.48l3.13-6.76h0.06l3.13,6.76H19.92ZM18.88,89l-1.23-2.82L16.4,89h2.47Z"/><path class="h" d="M27.3,91.41L25.58,89H24.05v2.46H23.24V84.73h2.23a2.69,2.69,0,0,1,1.25.27,1.94,1.94,0,0,1,.81.75,2.12,2.12,0,0,1,.28,1.09,2.08,2.08,0,0,1-.38,1.24,2,2,0,0,1-1.07.74l1.83,2.59H27.3Zm-3.25-3.15h1.39a1.64,1.64,0,0,0,1.14-.37,1.34,1.34,0,0,0,.41-1,1.32,1.32,0,0,0-.41-1,1.65,1.65,0,0,0-1.14-.36H24.05v2.82Z"/><path class="h" d="M34.88,85.44H33v6H32.12v-6H30.19V84.73h4.69v0.72Z"/><path class="h" d="M42.71,88.92a2.67,2.67,0,0,1-.33,1.36,2.27,2.27,0,0,1-.92.89,2.79,2.79,0,0,1-1.32.31,2.76,2.76,0,0,1-1.32-.31,2.28,2.28,0,0,1-.92-0.89,2.67,2.67,0,0,1-.33-1.36V84.73h0.79v4.18a1.86,1.86,0,0,0,.49,1.38,1.74,1.74,0,0,0,1.28.49,1.76,1.76,0,0,0,1.29-.49,1.85,1.85,0,0,0,.5-1.38V84.73h0.79v4.19Z"/><path class="h" d="M48.9,85a1.94,1.94,0,0,1,.81.75A2.13,2.13,0,0,1,50,86.85a2.1,2.1,0,0,1-.28,1.09,1.94,1.94,0,0,1-.81.75,2.7,2.7,0,0,1-1.25.27H46.24v2.46H45.43V84.73h2.23A2.7,2.7,0,0,1,48.9,85Zm-0.12,2.89a1.34,1.34,0,0,0,.41-1,1.32,1.32,0,0,0-.41-1,1.66,1.66,0,0,0-1.14-.36H46.24v2.82h1.39A1.64,1.64,0,0,0,48.78,87.89Z"/><path class="h" d="M62.07,91.41H61.88l-2.06-5.08-2.08,5.08H57.55L55.2,84.73h0.86l1.65,4.88,2-4.88h0.21l2,4.88,1.65-4.88h0.86Z"/><path class="h" d="M71.23,90.7v0.72H66.95V84.73h4.17v0.72H67.78V87.7h2.4v0.72h-2.4V90.7h3.45Z"/><path class="h" d="M78.23,90.7v0.72H73.95V84.73h4.16v0.72H74.78V87.7h2.4v0.72h-2.4V90.7h3.45Z"/><path class="h" d="M83.66,88l3.17,3.44h-1l-2.66-2.88-1.27,1.38v1.51H81.09V84.73h0.82v4.08l3.7-4.08h1Z"/></g></svg>