<svg xmlns="http://www.w3.org/2000/svg" viewBox="0 0 303.02 215"><defs><style>.a{isolation:isolate;}.b{fill:#c2c2c2;}.c{fill:#a5a5a5;}.d{fill:#dbdbdb;}.e{fill:#c1c1c1;}.f{fill:#d2d2d2;}.g{fill:#05d3d8;mix-blend-mode:overlay;}.h{fill:#4d4d4d;}</style></defs><title>2016_logo</title><g class="a"><polyline class="b" points="62.43 116.87 148.3 72.7 87.22 56.6 8.46 116.87"/><polygon class="c" points="8.46 116.87 87.09 57.34 96.47 3.5 8.46 116.87"/><polygon class="d" points="96.47 3.5 87.09 57.34 148.3 72.7 212.78 76.85 96.47 3.5"/><polygon class="e" points="181.22 20.6 246.64 116.87 144.28 116.87 181.22 20.6"/><polygon class="f" points="181.75 20.24 144.81 116.87 63.49 116.87 181.75 20.24"/><polygon class="c" points="291.06 116.87 291.06 116.87 265.39 116.87 181.22 20.6 291.06 116.87"/><polygon class="c" points="265.39 116.87 246.64 116.87 181.22 20.6 265.39 116.87"/><polygon class="g" points="181.51 20.86 181.75 20.24 181.26 20.64 181.22 20.6 181.18 20.71 156.16 41.15 96.47 3.5 8.46 116.87 62.43 116.87 65.3 115.39 63.49 116.87 144.28 116.87 144.81 116.87 246.64 116.87 265.39 116.87 291.06 116.87 181.51 20.86"/><path class="h" d="M42.52,160.34c0,12.45-9.32,22.35-22.23,22.35H7V138H20.29C33.2,138,42.52,147.88,42.52,160.34Zm-5.36,0c0-10-6.32-17.69-16.86-17.69H12.44V178h7.86C30.83,178,37.16,170.3,37.16,160.34Z"/><path class="h" d="M90.3,177.9v4.79H61.68V138H89.53v4.79H67.24v15.07h16v4.79h-16V177.9H90.3Z"/><path class="h" d="M145.74,183.08h-0.19l-30-33.08v32.7H110.1V137.6h0.19l30,33.21V138h5.43v45.09Z"/><path class="h" d="M184.25,182.69h-1L163.62,138h2l18.14,41.39L201.94,138h2Z"/><path class="h" d="M248.7,181v1.72H221.81V138h26.12v1.72H223.72v19.61h17.95v1.79H223.72V181h25Z"/><path class="h" d="M297.56,182.69l-13.35-17.63a14.32,14.32,0,0,1-1.66.06h-12.2v17.56H268.5V138h14.05c9.13,0,14.95,6.07,14.95,13.54,0,6.45-4.34,11.94-11.43,13.28l13.6,17.88h-2.11Zm-14.82-19.22c8.24,0,12.84-4.6,12.84-11.94s-4.6-11.88-12.84-11.88H270.35v23.82h12.39Z"/><path class="h" d="M13.37,202.91l-0.92.34a3.23,3.23,0,0,0-3-1.86c-1.62,0-2.69.87-2.69,2s0.82,1.67,2,2.1L10.2,206c1.87,0.65,3.32,1.52,3.32,3.41s-2,3.19-4.11,3.19a4.43,4.43,0,0,1-4.26-2.79l0.92-.39a3.49,3.49,0,0,0,3.34,2.25c1.59,0,3-.82,3-2.25s-1.16-2-2.45-2.42l-1.48-.51c-1.65-.58-2.86-1.36-2.86-3.07s1.62-3,3.77-3A4.24,4.24,0,0,1,13.37,202.91Z"/><path class="h" d="M24.82,201.53H21.26v11H20.17v-11H16.59v-1h8.23v1Z"/><path class="h" d="M34.56,209H28.89l-1.53,3.49H26.18l5.49-12.06h0.1l5.49,12.06H36.09Zm-0.39-.9-2.45-5.55-2.44,5.55h4.89Z"/><path class="h" d="M48.17,212.5L44.91,208h-3.1v4.5H40.74V200.57h3.89c2.54,0,4.09,1.62,4.09,3.71A3.53,3.53,0,0,1,46,207.83l3.41,4.67H48.17Zm-6.36-5.42h2.81c1.93,0,3-1,3-2.79s-1.09-2.76-3-2.76H41.81v5.55Z"/><path class="h" d="M60.33,201.53H56.77v11H55.68v-11H52.1v-1h8.23v1Z"/><path class="h" d="M73.26,208a4.51,4.51,0,1,1-9,0v-7.43H65.3V208c0,2.39,1.36,3.68,3.44,3.68s3.46-1.29,3.46-3.68v-7.43h1.06V208Z"/><path class="h" d="M85.23,204.29c0,2.11-1.55,3.71-4.09,3.71H78.33v4.5H77.25V200.57h3.89C83.68,200.57,85.23,202.19,85.23,204.29Zm-1.07,0c0-1.76-1.09-2.76-3-2.76H78.33v5.55h2.81C83.07,207.08,84.16,206,84.16,204.29Z"/><path class="h" d="M105,212.5h-0.24l-3.8-9.7-3.83,9.7H96.86l-4.06-11.93h1.12L97.06,210l3.73-9.41h0.26l3.71,9.41,3.14-9.41H109Z"/><path class="h" d="M120.13,211.53v1h-7.45V200.57h7.24v1h-6.13V206h4.46v1h-4.46v4.55h6.34Z"/><path class="h" d="M131.57,211.53v1h-7.45V200.57h7.24v1h-6.13V206h4.46v1h-4.46v4.55h6.34Z"/><path class="h" d="M139.87,206.35l5.79,6.15H144.3l-5.09-5.44-2.28,2.37v3.07h-1.09V200.57h1.09V208l7-7.43h1.36Z"/></g></svg>