<svg xmlns="http://www.w3.org/2000/svg" viewBox="0 0 290.66 215.71"><defs><style>.a{fill:#4d4d4d;}.b{fill:#4fe4e7;}.c{fill:#91ecef;}.d{fill:#c2f4f4;}.e{fill:#aff2f3;}.f{fill:#90ecef;}</style></defs><title>2016_logo</title><path class="a" d="M36.87,164.11c0,12.29-9.2,22.06-21.94,22.06H1.83V142H14.94C27.67,142,36.87,151.82,36.87,164.11Zm-5.29,0c0-9.9-6.24-17.46-16.64-17.46H7.18v34.92h7.75C25.34,181.57,31.58,173.94,31.58,164.11Z"/><path class="a" d="M84,181.44v4.73H55.79V142H83.27v4.73h-22v14.88H77.09v4.73H61.27v15.06H84Z"/><path class="a" d="M138.74,186.55h-0.19L108.93,153.9v32.27h-5.36v-44.5h0.19l29.63,32.78V142h5.36v44.5Z"/><path class="a" d="M176.75,186.17h-0.94L156.39,142h2l17.9,40.85,18-40.85h2Z"/><path class="a" d="M240.35,184.47v1.7H213.82V142H239.6v1.7H215.71V163.1h17.71v1.76H215.71v19.6h24.65Z"/><path class="a" d="M288.58,186.17l-13.17-17.4a14.13,14.13,0,0,1-1.64.06h-12v17.33H259.9V142h13.87c9,0,14.75,6,14.75,13.36,0,6.37-4.29,11.79-11.28,13.11l13.43,17.65h-2.08ZM274,167.2c8.13,0,12.67-4.54,12.67-11.79s-4.54-11.72-12.67-11.72H261.72V167.2H274Z"/><path class="a" d="M8.11,206.12l-0.91.34a3.19,3.19,0,0,0-3-1.83c-1.6,0-2.66.86-2.66,2s0.81,1.65,2,2.07L5,209.2c1.85,0.64,3.28,1.5,3.28,3.36s-2,3.14-4.05,3.14A4.37,4.37,0,0,1,0,212.95l0.91-.39a3.44,3.44,0,0,0,3.3,2.22c1.56,0,3-.81,3-2.22s-1.14-2-2.42-2.39l-1.46-.5c-1.63-.57-2.83-1.35-2.83-3s1.6-2.94,3.72-2.94A4.19,4.19,0,0,1,8.11,206.12Z"/><path class="a" d="M19.4,204.76H15.89v10.83H14.81V204.76H11.28v-0.94H19.4v0.94Z"/><path class="a" d="M29,212.14h-5.6l-1.51,3.45H20.74l5.42-11.91h0.1l5.42,11.91H30.53Zm-0.39-.89-2.42-5.48-2.4,5.48h4.83Z"/><path class="a" d="M42.45,215.59l-3.21-4.44H36.17v4.44H35.11V203.82h3.84c2.51,0,4,1.6,4,3.67a3.49,3.49,0,0,1-2.71,3.5l3.36,4.61H42.45Zm-6.27-5.35h2.78c1.9,0,3-1,3-2.76s-1.08-2.72-3-2.72H36.17v5.48Z"/><path class="a" d="M54.45,204.76H50.93v10.83H49.86V204.76H46.33v-0.94h8.12v0.94Z"/><path class="a" d="M67.21,211.15a4.45,4.45,0,1,1-8.9,0v-7.33h1v7.33c0,2.35,1.35,3.63,3.4,3.63s3.41-1.28,3.41-3.63v-7.33h1v7.33Z"/><path class="a" d="M79,207.48c0,2.08-1.53,3.67-4,3.67H72.21v4.44H71.15V203.82H75C77.49,203.82,79,205.41,79,207.48Zm-1.06,0c0-1.73-1.08-2.72-3-2.72H72.21v5.48H75C76.89,210.24,78,209.22,78,207.48Z"/><path class="a" d="M98.51,215.59H98.27L94.52,206l-3.78,9.57H90.5l-4-11.77h1.11l3.09,9.28,3.68-9.28h0.25l3.67,9.28,3.09-9.28h1.11Z"/><path class="a" d="M113.47,214.63v1h-7.35V203.82h7.15v1h-6.05v4.42h4.41v0.94h-4.41v4.49h6.26Z"/><path class="a" d="M124.76,214.63v1h-7.35V203.82h7.15v1h-6.05v4.42h4.41v0.94h-4.41v4.49h6.26Z"/><path class="a" d="M132.95,209.52l5.72,6.07h-1.35l-5-5.36L130,212.56v3H129V203.82H130v7.33l6.93-7.33h1.35Z"/><polygon class="b" points="0.9 118.61 81.52 56.33 91.13 0 0.9 118.61"/><polygon class="b" points="178.03 17.89 245.11 118.61 264.34 118.61 290.66 118.61 178.03 17.89"/><path class="c" d="M119.76,85.27V79s-0.46-6.77,4.08-11.83l-17.77-4.55,0.78,12.6h6.57V88.6Z"/><polygon class="c" points="64.53 105.6 64.53 90.07 86.24 90.07 86.24 102.86 94.86 98.34 94.86 75.21 103.17 75.21 103.99 62.08 81.52 56.33 0.9 118.61 56.23 118.61 64.53 114.25 64.53 105.6"/><path class="d" d="M104.22,58.32h1.58l0.27,4.3,17.77,4.55c2.57-3,6.75-5.36,13.55-5.36v6.45a17.55,17.55,0,0,1,8,4.22l65,4.26L91.13,0,81.52,56.33,104,62.08Z"/><polygon class="e" points="94.86 86.69 86.24 93.81 86.24 105.6 94.86 105.6 94.86 86.69"/><path class="e" d="M113.42,75.21v43.4h6.34V79s-0.68-17.2,17.63-17.2v6.45s6.12,1.23,9.13,5.53A8.94,8.94,0,0,1,148.14,79V98.54l6.44-17.36V79.56h0.6L178,18,108.75,75.21h4.67Z"/><polygon class="e" points="64.53 111.75 56.23 118.61 64.53 118.61 64.53 111.75"/><polygon class="f" points="177.88 79.56 177.88 101.73 177.88 105.6 219.82 101.1 209.66 118.61 245.11 118.61 178.03 17.89 154.84 79.56 177.88 79.56"/><polygon class="f" points="154.57 109.91 154.57 80.27 148.13 97.39 148.13 109.91 154.57 109.91"/></svg>